<mxfile host="app.diagrams.net" modified="2023-03-15T20:38:48.770Z" agent="5.0 (Windows NT 10.0; Win64; x64) AppleWebKit/537.36 (KHTML, like Gecko) Chrome/110.0.0.0 Safari/537.36 Edg/110.0.1587.69" etag="v0KyIb-fUj-DgpkawU7V" version="21.0.6" type="github">
  <diagram name="Strona-1" id="LpU5Waz1JbV2msBEfwgL">
    <mxGraphModel dx="3601" dy="2745" grid="1" gridSize="10" guides="1" tooltips="1" connect="1" arrows="1" fold="1" page="1" pageScale="1" pageWidth="827" pageHeight="1169" math="0" shadow="0">
      <root>
        <mxCell id="0" />
        <mxCell id="1" parent="0" />
        <mxCell id="rrDHZDUOhR6w_QO3boBU-1" value="" style="shape=cube;whiteSpace=wrap;html=1;boundedLbl=1;backgroundOutline=1;darkOpacity=0.05;darkOpacity2=0.1;size=80;strokeWidth=3;" vertex="1" parent="1">
          <mxGeometry x="30" y="140" width="710" height="660" as="geometry" />
        </mxCell>
        <mxCell id="FI92FZoO_AwsKUyX61cm-1" value="&lt;b style=&quot;font-size: 24px;&quot;&gt;&lt;span style=&quot;&quot;&gt;Demonstrator Location and Facilities&lt;/span&gt;&lt;br&gt;&lt;font style=&quot;font-size: 24px;&quot; color=&quot;#ff0000&quot;&gt;(WP7)&lt;/font&gt;&lt;/b&gt;" style="shape=cube;whiteSpace=wrap;html=1;boundedLbl=1;backgroundOutline=1;darkOpacity=0.05;darkOpacity2=0.1;fillColor=#f5f5f5;gradientColor=#b3b3b3;strokeColor=#666666;size=30;strokeWidth=4;" parent="1" vertex="1">
          <mxGeometry x="230" y="300" width="330" height="150" as="geometry" />
        </mxCell>
        <mxCell id="FI92FZoO_AwsKUyX61cm-2" value="&lt;font style=&quot;font-size: 18px;&quot;&gt;&lt;b&gt;Robotic Component&lt;br&gt;(WPy)&lt;/b&gt;&lt;/font&gt;" style="shape=cube;whiteSpace=wrap;html=1;boundedLbl=1;backgroundOutline=1;darkOpacity=0.05;darkOpacity2=0.1;fillColor=#dae8fc;strokeColor=#6c8ebf;strokeWidth=3;" parent="1" vertex="1">
          <mxGeometry x="130" y="530" width="200" height="80" as="geometry" />
        </mxCell>
        <mxCell id="FI92FZoO_AwsKUyX61cm-3" value="&lt;font style=&quot;font-size: 18px;&quot;&gt;&lt;b&gt;Robotic Component&lt;br&gt;(WPy)&lt;/b&gt;&lt;/font&gt;" style="shape=cube;whiteSpace=wrap;html=1;boundedLbl=1;backgroundOutline=1;darkOpacity=0.05;darkOpacity2=0.1;fillColor=#d5e8d4;strokeColor=#82b366;strokeWidth=3;" parent="1" vertex="1">
          <mxGeometry x="470" y="530" width="200" height="80" as="geometry" />
        </mxCell>
        <mxCell id="FI92FZoO_AwsKUyX61cm-4" value="&lt;font style=&quot;font-size: 18px;&quot;&gt;&lt;b&gt;Robotic Component&lt;br&gt;(WPy)&lt;/b&gt;&lt;/font&gt;" style="shape=cube;whiteSpace=wrap;html=1;boundedLbl=1;backgroundOutline=1;darkOpacity=0.05;darkOpacity2=0.1;fillColor=#fff2cc;strokeColor=#d6b656;strokeWidth=3;" parent="1" vertex="1">
          <mxGeometry x="470" y="650" width="200" height="80" as="geometry" />
        </mxCell>
        <mxCell id="FI92FZoO_AwsKUyX61cm-5" value="&lt;font style=&quot;font-size: 18px;&quot;&gt;&lt;b&gt;Robotic Component&lt;br&gt;(WPy)&lt;/b&gt;&lt;/font&gt;" style="shape=cube;whiteSpace=wrap;html=1;boundedLbl=1;backgroundOutline=1;darkOpacity=0.05;darkOpacity2=0.1;fillColor=#ffe6cc;strokeColor=#d79b00;strokeWidth=3;" parent="1" vertex="1">
          <mxGeometry x="130" y="650" width="200" height="80" as="geometry" />
        </mxCell>
        <mxCell id="FI92FZoO_AwsKUyX61cm-10" value="" style="shape=flexArrow;endArrow=classic;html=1;rounded=0;strokeWidth=3;" parent="1" edge="1">
          <mxGeometry width="50" height="50" relative="1" as="geometry">
            <mxPoint x="260" y="510" as="sourcePoint" />
            <mxPoint x="310" y="460" as="targetPoint" />
          </mxGeometry>
        </mxCell>
        <mxCell id="FI92FZoO_AwsKUyX61cm-13" value="" style="shape=flexArrow;endArrow=classic;html=1;rounded=0;strokeWidth=3;" parent="1" edge="1">
          <mxGeometry width="50" height="50" relative="1" as="geometry">
            <mxPoint x="530" y="510" as="sourcePoint" />
            <mxPoint x="490" y="460" as="targetPoint" />
          </mxGeometry>
        </mxCell>
        <mxCell id="FI92FZoO_AwsKUyX61cm-14" value="" style="shape=flexArrow;endArrow=classic;html=1;rounded=0;strokeWidth=3;" parent="1" edge="1">
          <mxGeometry width="50" height="50" relative="1" as="geometry">
            <mxPoint x="400" y="550" as="sourcePoint" />
            <mxPoint x="400" y="460" as="targetPoint" />
          </mxGeometry>
        </mxCell>
        <mxCell id="FI92FZoO_AwsKUyX61cm-16" value="&lt;font style=&quot;font-size: 24px;&quot;&gt;&lt;b style=&quot;&quot;&gt;&lt;font style=&quot;font-size: 24px;&quot;&gt;Actions performed for the benefit of the demonstrator ownwers&amp;nbsp;&lt;/font&gt;&lt;br&gt;&lt;font style=&quot;font-size: 24px;&quot; color=&quot;#ff0000&quot;&gt;(WP3-WP6)&lt;/font&gt;&lt;/b&gt;&lt;/font&gt;" style="shape=cube;whiteSpace=wrap;html=1;boundedLbl=1;backgroundOutline=1;darkOpacity=0.05;darkOpacity2=0.1;size=50;fillColor=#f5f5f5;strokeColor=#666666;fontColor=#333333;strokeWidth=3;" parent="1" vertex="1">
          <mxGeometry x="930" y="16" width="450" height="260" as="geometry" />
        </mxCell>
        <mxCell id="FI92FZoO_AwsKUyX61cm-17" value="&lt;font style=&quot;font-size: 25px;&quot;&gt;&lt;b style=&quot;&quot;&gt;&lt;span style=&quot;&quot;&gt;Product Dataset&lt;/span&gt;&lt;br&gt;&lt;font style=&quot;font-size: 25px;&quot; color=&quot;#ff0000&quot;&gt;WP3, WP7&lt;/font&gt;&lt;/b&gt;&lt;/font&gt;" style="rounded=1;whiteSpace=wrap;html=1;strokeWidth=3;" parent="1" vertex="1">
          <mxGeometry x="870" y="335" width="220" height="100" as="geometry" />
        </mxCell>
        <mxCell id="FI92FZoO_AwsKUyX61cm-18" value="&lt;font style=&quot;font-size: 24px;&quot;&gt;&lt;b style=&quot;&quot;&gt;- Non-wired Communication&amp;nbsp; &lt;br&gt;&lt;/b&gt;&lt;font style=&quot;font-size: 24px;&quot; color=&quot;#ff0000&quot;&gt;&lt;b style=&quot;&quot;&gt;(WP5)&lt;/b&gt;&lt;/font&gt;&lt;br&gt;&lt;b style=&quot;&quot;&gt;&lt;span style=&quot;&quot;&gt;- Cooperation Throughout, Non-wired Interfaces and Integration Architecture&lt;br&gt;&lt;/span&gt;&lt;/b&gt;&lt;font style=&quot;font-weight: bold; font-size: 24px;&quot; color=&quot;#ff0000&quot;&gt;(WP5, WP6)&lt;/font&gt;&lt;/font&gt;" style="rounded=1;whiteSpace=wrap;html=1;strokeWidth=3;" parent="1" vertex="1">
          <mxGeometry x="280" y="840" width="290" height="300" as="geometry" />
        </mxCell>
        <mxCell id="FI92FZoO_AwsKUyX61cm-20" value="" style="shape=flexArrow;endArrow=classic;html=1;rounded=0;strokeWidth=3;" parent="1" edge="1">
          <mxGeometry width="50" height="50" relative="1" as="geometry">
            <mxPoint x="580" y="380" as="sourcePoint" />
            <mxPoint x="840" y="380" as="targetPoint" />
          </mxGeometry>
        </mxCell>
        <mxCell id="FI92FZoO_AwsKUyX61cm-22" value="" style="shape=cube;whiteSpace=wrap;html=1;boundedLbl=1;backgroundOutline=1;darkOpacity=0.05;darkOpacity2=0.1;size=60;strokeWidth=3;" parent="1" vertex="1">
          <mxGeometry x="-500" y="40" width="420" height="450" as="geometry" />
        </mxCell>
        <mxCell id="FI92FZoO_AwsKUyX61cm-24" value="&lt;b style=&quot;border-color: var(--border-color);&quot;&gt;&lt;font style=&quot;font-size: 24px;&quot;&gt;(Semi) Autonomous Movement&lt;/font&gt;&lt;br style=&quot;border-color: var(--border-color);&quot;&gt;&lt;/b&gt;" style="rounded=1;whiteSpace=wrap;html=1;strokeWidth=3;" parent="1" vertex="1">
          <mxGeometry x="-370" y="170" width="210" height="90" as="geometry" />
        </mxCell>
        <mxCell id="FI92FZoO_AwsKUyX61cm-27" value="" style="edgeStyle=orthogonalEdgeStyle;rounded=0;orthogonalLoop=1;jettySize=auto;html=1;shape=flexArrow;endArrow=block;startArrow=block;strokeWidth=3;" parent="1" source="FI92FZoO_AwsKUyX61cm-26" target="FI92FZoO_AwsKUyX61cm-24" edge="1">
          <mxGeometry relative="1" as="geometry" />
        </mxCell>
        <mxCell id="FI92FZoO_AwsKUyX61cm-26" value="&lt;b style=&quot;border-color: var(--border-color);&quot;&gt;&lt;font style=&quot;font-size: 24px;&quot;&gt;Object Identification, Classification and Registration&lt;/font&gt;&lt;/b&gt;" style="rounded=1;whiteSpace=wrap;html=1;strokeWidth=3;" parent="1" vertex="1">
          <mxGeometry x="-370" y="310" width="210" height="150" as="geometry" />
        </mxCell>
        <mxCell id="FI92FZoO_AwsKUyX61cm-28" value="&lt;h1&gt;&lt;font color=&quot;#ff0000&quot;&gt;(WP3)&lt;/font&gt;&lt;/h1&gt;" style="text;html=1;strokeColor=none;fillColor=none;spacing=5;spacingTop=-20;whiteSpace=wrap;overflow=hidden;rounded=0;" parent="1" vertex="1">
          <mxGeometry x="-300" y="120" width="90" height="40" as="geometry" />
        </mxCell>
        <mxCell id="FI92FZoO_AwsKUyX61cm-36" value="&lt;b style=&quot;&quot;&gt;&lt;font style=&quot;font-size: 24px;&quot;&gt;Sensors&lt;/font&gt;&lt;/b&gt;" style="rounded=1;whiteSpace=wrap;html=1;strokeWidth=3;" parent="1" vertex="1">
          <mxGeometry x="90" y="-190" width="180" height="80" as="geometry" />
        </mxCell>
        <mxCell id="FI92FZoO_AwsKUyX61cm-37" value="&lt;b style=&quot;&quot;&gt;&lt;font style=&quot;font-size: 24px;&quot;&gt;Actuators&lt;/font&gt;&lt;/b&gt;" style="rounded=1;whiteSpace=wrap;html=1;strokeWidth=3;" parent="1" vertex="1">
          <mxGeometry x="475" y="-200" width="180" height="80" as="geometry" />
        </mxCell>
        <mxCell id="FI92FZoO_AwsKUyX61cm-38" value="" style="swimlane;startSize=0;strokeWidth=3;" parent="1" vertex="1">
          <mxGeometry x="70" y="-220" width="620" height="300" as="geometry" />
        </mxCell>
        <mxCell id="FI92FZoO_AwsKUyX61cm-42" value="" style="shape=image;verticalLabelPosition=bottom;labelBackgroundColor=default;verticalAlign=top;aspect=fixed;imageAspect=0;image=data:image/png,iVBORw0KGgoAAAANSUhEUgAAAKAAAABdCAYAAAAiw23qAAAgAElEQVR4nO19d1hUZ/b/ZwqdYYAZYIYZehEBUaoFXd2NXWMsMWqMsbv2FE3dfI1xN6aZqDG2FGM21S4W7FGxgQQBFZDeOwyd6XN+f5h7d4YmFmL2t36e5z4i3Pvet5x72nvOeTlERHiCJ3hM4D7uDjzB/zaeEOATPFY8IcAneKzg9/QLjFVMDofT0697gv8y/CEckMPhsMT3xOb588NgMMBgMPwh7/pDCFCv17M/PyHAPz84HM4ftk49LoIBoKWlBUVFRWhqaoJIJIK7uzssLS3/iFc/wX2itbUVxcXFUCgUsLe3h6enJ6ysrHrsfT1KgGq1Gjdv3sQ333yDW7duQaVSwdbWFlFRUZg5cyb69OnDimYu94k91BPQ6/Xg8Xjduve3337DDz/8gBs3bqC5uRmWlpYIDw/HokWL4OfnB3Nz83Z6/MPq9ZyecEQTEYgIiYmJePPNN3Hnzh1wOBzw+Xzo9XoQEQYNGoTXX38d4eHhICJwudwuWf+jHvj/CnQ6HftzV3MYHx+PTz75BAkJCSAimJubQ6fTwWAwICQkBJs2bUJAQEC79h92HXhr165d+1AtdACDwYD6+nps3boVcXFxkMvlmD17NubOnQsnJyeUlpYiPz8fNjY26NOnD2xtbU2eZ4wW46vt35+gcxgMBnA4HBgMBvB4PHC5XJPLeF65XC6qq6vx3Xff4dSpU3BycsLs2bOxdOlSuLi4oKSkBGlpaTA3N0dkZCQsLCxM3vWwa9EjIpjH40GhUOC3336DhYUFJk2ahDfeeANcLhfh4eHgcDj49ttvcfnyZTg7O0Mul5tYXp0NisPhIDo6GmKx+AkRdoHa2lpcunQJOp0OfH77JTaeOz6fj8LCQly9ehU8Hg/Tp0/H/PnzIRKJMHToUOh0OuzevRsJCQmora2FQCB4pHPfIwSo0+mgUqnQ2NgIS0tL9O7dG1wuF2q1GiKRCL6+vrC3t0d6ejpSUlKg1WrZZ9ua/2ZmZuyX3NLSglmzZmHTpk2wtrYG8IQbMmDUnpaWFixZsgTHjh1jdba2ao3xnBkMBvD5fFhbW8PJyQkeHh4QCoXQarXg8Xjw9/eHpaUlFAoFmpqaQETs849i7nuEAPl8PmxsbCAUClFWVob09HSMGTMGZmZmqKqqQlZWFpqammBlZQWxWMwaIMwkGoMRJxwOB/X19Thy5AhsbGywbt062NnZ9UT3/+vAzFFNTQ1eeuklXL58GVKpFFZWVvfkgMBdQ0WpVKKhoQFZWVlQKBRwcnKCSqVCeno6lEolvLy84OjoyK7Vo/rwe4QADQYDhEIh+vfvj927d2P//v3Q6XSIjIzElStXEBMTAw6Hg2nTpmH69OksN2OeNekgn8/+7qOPPsKJEydw4MAB8Hg8/N///R/s7e17Ygj/dSgrK8OaNWsQFxcHHo+HUaNGYdWqVdDr9e2I0Jh4OBwO6urq8OOPP+LAgQM4dOgQDAYDIiIicO3aNZw4cQJqtRoDBgyAQCBo9/xDg3oABoOBNBoNpaam0pgxY0gmk5GrqytJpVKSSqXk7u5OM2fOpBs3bpBerye9Xn/P9vR6PbW0tNCSJUvIw8ODPDw86NVXXyWFQkEGg6EnhvFfAYPBQKWlpTRnzhySy+UklUrppZdeIqVSyd7DzLHBYGg3V8zv4uPj6dlnnyW5XE4uLi7k4uJCrq6uJJPJ6JlnnqE7d+6QTqd75P3vESsYuGuIiEQiBAcHQ6fTQa/XQyAQQCaTYezYsVi8eDGCgoIA3P2iNBoNWlpa0NTUBJVKBQAmXy4RwcLCAtHR0SgrK0NWVhYyMzNRW1trYkn/L+mEer0excXFeP/99/Hrr7+Cx+Nh6tSp+Oijj2Bubs7eZzAYQETQ6/VobGyEUqmERqNhxSmXy4VMJkNAQAC4XC70ej1sbW3h6uqKESNG4NVXX4Wfnx94PN4jn98e8QMai1GDwQC1Wo3y8nLU19dDLBZDIpGYTJBCoUBycjKuX7+OsrIy2NjYIDw8HAMHDoRcLmcnipnIuro6rFu3DsePHweXy8Wzzz6LFStWQCqV/k8QIDO/ubm5+Oijj3D27FlwuVyMHz8e7733Xju1RKfTobS0FNeuXUNKSgoaGhogl8sxaNAg9OnTBw4ODuzHrlQqUVpaioaGBgiFQkilUpibm4PL5XbboX1feOQ8lYhl88y/jIhl/jUWA9XV1bRhwwbq27cvSSQS9pLJZDR//nzKyspiWb9eryeNRkMGg4HKy8vplVdeIR8fH/Lx8aGXX36ZCgoK/ifEsU6no4yMDFq4cCG5ubmRt7c3vf7661RVVUVE/1FZDAYD6XQ6Sk9Pp9mzZ5NUKiUXFxdycnIiZ2dnCgsLo40bN1JNTQ0rpo1Vorbr2BPoERHclgsZW7nG3FGj0eDo0aPYuXMn6urq0K9fPwwZMgQuLi6ora3FjRs3YGlpyTpA6XcXgMFgYJ3YtbW1yMrKQk5ODpRKJfz9/WFnZ9ctTkhGLoW2/6ffBYNarUZraysaGxtRV1eH6upqVFdXo7Ky0uSqrq5GTU0N6uvr0dLSwoo5Y99mR31iLNiO+mPcL6YNvV6PnJwcbNmyBSdOnACfz8f06dOxcuVKuLi4mMwRj8dDc3MzNm3ahH379sHZ2Rn9+/dHVFQULC0tkZeXh/z8fLi6usLHxwd8Pt9kS5Rp6179exj06F5wZ4TILIpCoUB8fDxqa2sRERGBFStWICoqChUVFdi4cSMOHz6M48ePY86cORAIBCAi8Hg81l0jkUiwdOlSEBFiY2MRExMDAFi4cCG8vLw67RezoEw7TL9UKhWam5tRV1fHElJVVRVqa2tRW1uLuro61NXVoaWlBSqVClqtlt3qMjMzg4WFBWxtbWFnZwehUAihUAixWAyRSASRSAShUAiRSAQbGxsIBALweDzodDpWHenIYmXmi1n8zMxMbNu2DadOnYKZmRkmT56Ml19+Gc7OziZzzoyxrKwMZ86cgb29PcaNG4fFixfDwcEBCQkJ2LhxI27evIn4+HgMGTKEbaOz9esJ/CHRMG3BDKyurg5VVVXQ6XSIjo5Gv379YG5uDg8PD4wbNw6nT59GbW0tampq4OnpCYPBwG4lAXcJ2tvbGy+99BL4fD6OHj2KQ4cOgcvlYt68efDy8mrH4YzB5XKhUChQU1ODqqoqFBQUIC8vDzk5OSgvL4dCoUBLSwtaW1uh0Wig1+tNtrH4fD7r6GWIxGAwQKfTgcfjsURpZWUFBwcHiMVi+Pj4wN3dHb6+vpBKpXB2doaTkxPMzMzA5XI7DeA1GAzIysrCzp07ceLECVb3XbJkCZycnDqcY4PBgIKCAtavN3r0aHh6ekKr1SIsLAyDBg1CcnIyqqur0dDQACcnpy7DsHqCIP9wAjQeILNIANDQ0MBGy+j1etTU1ICI2EUEYLJAxkTo5eWFJUuWgMPh4MiRIzh48CCICPPnz4e3tzf7PoaAm5ubUVZWhqKiIty+fRtpaWnIzc1FeXk5mpqa2HuZPvJ4PDg4OMDe3h4ikQgODg4QCoUQCASwsLCATqeDUqlkuadCoWCJV6VSob6+HgqFAnl5eUhKSgKPx4NYLIabmxt69eqF4OBg+Pn5wdPTEyKRqF1kEBEhMzMT33zzDU6ePAkzMzNMnDgRCxcuhLu7e7s5NhbrlpaWbGBBbW0tO2ctLS2or68Hl8uFmZkZa2j80egWAfaE7AcAFxcX+Pr64vLly/j1118hlUrRt29fVFdX49ChQ1Cr1XBycjLR6RiOw3Ah5mcvLy8sWLAARISjR49i//794HA4mDNnDry8vEBEqKysRF5eHlJTU3Hjxg2kpaWhpqYGWq2WFcfW1tbsvrS1tTXc3Nzg7+8PT09PeHp6wsXFBSKRCHZ2drC2toa5uTn0ej00Gg2USiUUCgWqq6tRUlKCwsJCZGZmorCwEJWVldBqtewiV1VVoaamBklJSbCwsICvry/CwsLQr18/9OrVC56enrC1tQURISMjA19//TVLfJMnT2Y5fGfrxUgKFxcXODg4oLq6Gvv27YONjQ3s7e1x/fp1XL16FVZWVvDz82u3v94VJ+zofZ3prveim24R4IM2fq+27O3t8dRTTyE5ORmJiYn44osv4OrqCoVCgbKyMvB4PLS2tuL8+fOYMWOGieumrcHA4XDg4+ODBQsWAABiYmLYHZhx48ZBoVDg2rVrSExMRF5eHlpbWyEWi9G3b180NzejoKAASqUSSqUSQqEQffv2xcCBAxESEoJevXpBKBR2KzBTLpcDuMuFWltbUVRUhOzsbCQkJOD69evIyclh9T6hUAgPDw/U1dXh5s2bSE5OhkgkQp8+fRAdHY3w8HBwuVz88ssvOHbsGPh8PiZNmoQFCxbAw8Oj03VgPk6VSoW4uDgolUrodDpcuXIFhYWFsLOzQ3FxMRobGxEZGYmhQ4fCxsbmofZ5jbnu/eCB/IDGjxgr8Q+ClpYWXLhwAXv27EFqaioaGxthZWUFHx8fNDQ0IC8vD3K5HEuXLsX06dNZvasz6PV65ObmYvfu3Th8+DD4fD68vLxQW1uLwsJCAIC3tzciIiLg6+uLiooKXL58GTk5OeBwOAgNDcXYsWMRFRUFPz8/dpuwrUXY3flh/l9ZWYn09HScPXsWJ0+eRFVVFezs7BAaGorIyEjodDokJyfj1q1bUCgUEAgE6NWrFywsLHD79m1wuVxMmjSJ5ehtt9OMweih33//PbZu3Yqqqir4+vrC1tYWubm50Gg0EAqFCA0NxbPPPouhQ4fCwsKCDc+6Hxh7NbrqU2fotghWKpUoLCxEbW0t+Hw+3N3dIZFIHjp3wNraGsOHD4eXlxcyMzNRV1cHKysreHp6oqqqCjt27EBKSgq++OILaDQazJ07t8twLR6PB4FAABcXF9jY2KCyshJJSUkQCASIjIxEVFQUwsPDIRKJcPbsWVy4cAG5ublwdXXFpEmTMGrUKAQFBbEL8rCcntE7nZycMGzYMAQHByMqKgoxMTGIi4vD9evXodfrMX36dIwcORIZGRlISEhAUlISUlJS2IhmHx8fhIWFwdXV9Z79UavV+Pe//43t27ejoqICkZGRWLp0KRwcHJCbmwutVgtHR0f4+/vDx8cHZmZmDzVOhghLS0tRWFgInU4HqVQKd3f3e0qNbnHAwsJCHDt2DFeuXEF1dTX4fD48PDwwfvx4jBgxghWND6snEhE0Gg2r+Ot0OsTFxeHjjz9GamoqJBIJVqxYgRkzZsDKyqqdyGhpaUFycjJiYmJw7do1lJaWwtraGv369cOwYcMQFhYGLy8vKBQK7N69GzExMaivr0doaCjmzJmDYcOGwdHRsdth7PeyGNu6efR6PftzRkYGjh49ip9++gmVlZUIDw/HvHnzMGrUKNTW1iI9PR1Xr17F5cuXkZ+fD0tLS/Tp0wfDhw/HyJEj4e7uDh6Px4o+5l06nQ5ff/01du7cybb7zjvvICoqCnw+HxqNhjXuOuN29yLGtpZ6a2srYmNjcebMGeTn50On00EmkyE6Ohrjx49n1ZKO0Kkj2tiPtHPnTvz888+4c+cOmpqa2L3YmzdvwsXFBb169WIt1AclQuZZxhnKcDO5XA4vLy9kZGQgLy8P6enpsLCwQEhICPh8PjvxpaWl2LNnD7799lvExcWhubkZYWFhmDVrFp577jkMGTKE1bd27tyJw4cPo66uDqNHj8aKFSvwl7/8BdbW1mzUcHfQUeR2Z2K6rfHEcCAXFxfk5uayxoqTkxMiIiLg6emJoKAgBAQEwMbGBiUlJcjIyEBGRgby8/NhZWUFiUTCcmrgrmP/22+/xVdffYWKigoEBQXhH//4BwYPHsyOifm4u5Iibf/Wdl2Nx0lEOHz4MD744AOkpKSgtrYWLS0tyMrKQkZGBtRqNQICAliDqm3bnRIgc+PRo0fxww8/oLGxEWPHjsXs2bMxcOBAVFZWIjMzE0VFRfjb3/4GGxsbaDQa1vuv0+m6dRlbbJ3B3d0dPj4+uHPnDrKzs5Gfnw8iQlBQEDQaDa5fv46tW7fi0KFDKCgogKenJ1544QXMmTMHf/nLXyCTyWBubo7a2lp8+eWXOHjwIJqbm/HMM89gyZIl6Nu3L0v4jD+PiFBcXIz6+no0Njaivr4eDQ0N7FVfX9+ti7m/qakJ5ubmMDc3Z8WytbU1fHx8IJPJkJ2djezsbBQXF0MikcDf3x8CgQBubm4IDAxEr169AAB5eXnIyMjA7du30djYCDc3N9jZ2UGpVOKrr77Crl27WM737rvvYsCAAff8oJgAYiZohLl0Oh20Wi3rcDe+mHsKCgqwZs0a5OfnIygoCMuXL8fIkSPB5/Nx+/ZtlJaWQi6XIzAw0ISuGHSpAzY2NiIlJQWVlZUYPHgw5s6di6CgIOj1etjY2OCf//wn8vLysH79eohEIhM3Q3chl8sxduxY1qpr+zzDWfv3749169bh7bffRkZGBr755hvodDrY2Nhgz549yMzMBJ/Px+jRozFt2jSEhYXB3t6efV6n0yEmJgZHjhxBQ0MDxo4diyVLlsDf35/Nm2C2ugwGAy5evIgdO3Z0OGlAx8GzHYH56vV6PZ5++mnMnz+fJXQulwsrKysMHz4cAPDBBx/g9u3b2L17NyQSCYKCgsDhcODq6gonJycEBgYiNDQUP//8MzIzM1FRUYHs7GzMnTsXCQkJLOcLCwvD2rVrERkZec8E88zMTBw9ehQ1NTVs0lhHMI6sNvbF1tTUID8/H05OTli8eDFGjRoF4C7TqKysRGpqKlJSUjBy5EgIhcJ27XZIgMwLGMeqVquFn58f3N3dYWZmBisrK4SFhcHa2hoNDQ04duwYNBoNANyTmxm3z+fzYWtri8LCQixZsgRubm4mBGhs2vP5fERERGDdunVYt24dMjMzsWvXLgB3fWqurq6YOXMmJk6cyIom+j0Eicvl4sqVK9i/fz9KSkowaNAgLFy4EP7+/qz+ytzL4/Fw8eJFrFu3Drm5udDpdCaK9r3G1JEFzOFwYG5ujtzcXADAvHnz2LAnALCyssJTTz2F+vp6fPDBB4iPj8eePXuwcuVKiMViAICFhQW8vb0xffp09OrVCz/88APOnTuHU6dOITc3FwqFArW1tQgLC8N7772H8PBwlsg76ieHw0FOTg62bt2KU6dOsa6atv2/11oymwn29vbo378/bG1todVq4enpCX9/fyQlJaGpqQlqtbrD5zskQOalTFg9l8tFZmYmmpub4ezsDA6Hg/T0dDQ2NkKv1yMqKor1I3Wn0wxhKRQKZGZm4sCBAyAiLFu2rJ1/y3hjncPhICIiArNnz8Y777yDpqYmaDQahIeH4+9//zsGDBgAR0dH9j3Mx1BYWIh9+/YhPT0dHh4eWLhwIUJDQ8Hj8VgCZbbZTp8+jTVr1iAvLw9ubm6YMmUKhEKhSXpjR4vTEUc0no9jx44hOzsbn3zyCTQaDf7+97+zC0hELBHm5uZi165dOHPmDIKCgjB16lT2Pg6HA3t7e0RHR8Pf3x8BAQH4/vvvcefOHfD5fLi4uOCdd95hOV9HhhTT57y8PDaggcfjISQkBI6Ojh3qe12hvr4eN2/eRH19PVJTU+Hq6sr+Pi8vDzweD9bW1p0WIuhSBNvZ2SEoKAgikQi//fYbPvroI/ztb39DXV0d9u/fj9bWVvj6+uKzzz6DpaUltFrtPf10wH8Wq66uDl9++aXJzsVLL73EuhqMiY/hFrdu3cKPP/4Ig8EAvV6PMWPGYPny5fDy8mpn8jP3nDlzBleuXAGPx8OLL76I6Oho1oAxdpfExcXh7bffRmlpKSQSCdasWYMhQ4awC9l2Qdtu/HdEgMw7IiMj8eabbyI/Px8bN24El8vF4MGDWR+dTCaDs7MzJk6ciLS0NFy7dg3Hjh1DSEgIqz8xsLCwgEwmw6JFi+Dr64uNGzciOzsbHA4H586dQ3h4uEmaQ1sUFhbi888/x/HjxwEAEyZMwJw5c9g4QmOuea+1rK2txdy5c1FcXIwtW7agpKQEtra2OHPmDJKSkuDg4IDg4ODO+9MuQIvIJHS7pKSEli9fTm5ubiSVSsnT05M8PT1JLBaTp6cnHTt2jAwGA2m1WtLr9aTT6drFlrW9dDodabVa0mq1lJ2dTUuXLiVPT09yc3OjVatWUXl5ORuTxrRLRHTp0iUaNGgQyeVycnd3p3Xr1lFNTU27dzL91+v1lJycTNOmTWPjC3NyctgxMvfq9Xo6e/YsRUREkIuLCwUHB9PBgwdJqVSysYhMbB1zdTUm5tJoNKTRaEir1VJrayslJCTQoEGDyNnZmYKCgigyMpJ69+5Nw4cPp71795JOpyOlUkl79uyh4OBg6tWrF23atIlaW1vZMRnH5un1emptbaUrV67QmDFjyMXFhXx8fGjVqlVUV1fXYbpDcXExu56enp700ksvUUFBQafjMn5vR5dWq6Uff/yR5HI5iUQi8vDwIDc3N5JIJOTm5kZvvvkmVVVVdZgOQNRJPKCxKW5ra4uwsDA4ODigoaEBOp0Otra2GDhwINauXYuhQ4eaKPGMN70rF4VxkrRQKESfPn1QXV3NbtbX1dWxOiZjJV+4cAHLly9HTU0NbG1t8eabb2LBggVsnqrxe5lntFotDh06hKNHj7Ib+C4uLqiurkZVVRUUCgXq6upw6dIlvPvuu6ioqIBQKMSmTZswYsQImJmZsVzY2M3EpJgykTpMuqKFhQUrUvl8vklSOCMiBwwYgIsXL6KqqgpqtRpNTU2oqalBamoqevfuDV9fX1hbW6O6uhqJiYnQarXo1asXKxWMxTqHw4GZmRmkUimio6ORl5eH3Nxc3Lx5EwUFBXjqqadgYWHBGlalpaVYt24dOx+TJ0/GqlWrIJfL261hdy+DwQAfHx+EhoaiqakJSqUS5ubm8Pf3x6JFi7Bw4UIIhcLOXVQdccCOOKJarabKykq6c+cOFRYWUn19PWm12g6/ivuFXq+nkpISWrRoEbm7u5NEIqFVq1ZRdXU16XQ6unDhAgUGBrKcb+/evaRWq0mn03X6Tq1WS7du3aLnn3+eXF1dyc/Pj3r37k2BgYHsFRAQQMHBweTr60tisZh8fX3p7NmzpNFoTBJwGM6gVCrp8uXL9M9//pMmT55M0dHR1K9fPwoLC6O//vWvNH/+fNq9ezcVFRV1mASk1WpJp9PR2LFjSSwW0wsvvEAHDhygqKgo8vDwoI8++oh0Oh1pNBo6evQo9e3bl3x8fOjzzz83STLqaP70ej1VVFTQjBkzSCKRkFgspmXLlpFSqSStVku1tbW0fPlycnV1JS8vL1q6dCmVlZXd91q1BTNGnU5Hzc3NlJ+fTzk5OVRXV8dyf2b+OlqnLgmwI+IyFlud3Xe/A2DaLCgooLlz55Knpye5uLjQW2+9RXFxcRQZGUmurq7k6upK+/btY0Pz79Xv/fv3U2RkJBuKLhaLTS4nJydycnIisVhMcrmcYmNjiYhIpVKZtK/VaikjI4NWrFhB/v7+JBaLSSAQkEAgIDs7OxIIBGRtbU0CgYDEYjENHjyYvvvuO6qvr2/Xt4aGBho6dCjZ29vTsmXL6MqVK9S/f3+SyWT0r3/9i4juElR+fj4tXryYnJ2daeHChZSbm3vPudRqtdTU1ERTp04lsVhMrq6utHr1alIoFLRs2TJydnYmLy8vWrhwIVVWVrIf8MPAmC4YMc78XqvVmtzTEX3cVzACYzFSGzHQton72Q2h38Ua/R7MWVlZiXfeeQdnz55lQ6LUajV0Oh0+//xzTJo0qUtfI+Muqa2txebNm/Hdd98hJCQEs2fPhpubWztr1tzcHM3NzWxWWNttOKVSiVOnTuH9999HQUEBzM3NIZfLERoait69e0MkErEO2Rs3biAjI4P1DkyZMgVvvfUWm1jFzMuaNWuwadMmiMVi1rHr6OiIDRs2YOTIkQDuOof37duHd999F05OTlizZg1Gjx7d6dwau1yam5uxYMECXLx4ERYWFnBzc0N+fj64XC6efvpptk2dTvdIko2YOTd25HeUwE4deUkeivwfEdomv5SXl9Ps2bPJ29ubvL29SSaT0ddff33P/GGiu9xDq9VSSkoKTZkyhSQSCa1fv57NHzY2JO7FuVUqFR05coQCAgJILpdTVFQUvffee5Sdnd1OrBgMBmpsbKQTJ07Qc889R97e3uTg4EAzZ86k8vJyk/FVVVXRiy++SB4eHuTt7U1hYWG0ZcsW1uBirmvXrtHIkSNJLpfTli1bqLW1tdtz2tzcTJMmTSKJREJyuZw8PDxo8eLFVF5e/tAqU1s8TBt/CgIk+s8gtFotNTQ00GuvvUYeHh4kk8no/fffv++k6NjYWIqMjKTAwEA6dOiQiT7SmUVnDMaCDg8PJ5lMRn/961/pyJEjJiKmLRiCLCoqojfeeIMCAwNJJBLR6tWrqba21uS5hoYGunDhAu3du5fS0tLaiUODwUCFhYX0yiuvkKurK61cuZLy8/O7NXZG9OXl5dHQoUPJzc2NevfuTTExMY9EZ3+U+NNUhWTEsE6nw08//YSYmBjodDpMmTIFK1eu7FYbZJTJVlBQgOrqari5ucHFxYXd6+3uVqFarcbJkyeRm5sLLy8vvPHGGxg3bly7Cl5k5IBm2nZzc8Nbb72FCRMmQCQS4YcffsDp06dNijDZ2tpiyJAhmDp1KuvnY9pm2mQCVnk8HnJyclBZWcmKuK7AJDbJ5XK8//77cHZ2RnNzM3bt2oXMzMxujf+Pwp+GAIG7E3/t2jX8+OOPaGpqQt++ffHKK6/AxsaGdW/cCwaDAc3NzaiqqoJKpYJcLodIJLrvSB0zMzP87W9/w5QpU7Bo0SKMGDGCJWDjgIWO3k9EsLOzw7x58+Dv7w+tVov9+/ejsbGR7YPx3jPwn50Opl0ulwtbW1u4ubnB3t4eCoUCDQ0N9xV/yePxEL6DQYcAACAASURBVB4ejpdffhmWlpZISUnBrl270NjY2O02ehp/KgIsKSnB7t27UVRUBHd3d6xevdqk2kF3CIiI0NzcjJqaGjbsicnzYIiws4tZfKK76Z8RERHYtm0bnn/+ebbtzva6jQmH6aufnx+eeeYZODo64ubNm0hLSwOATjf8jf1wTFtMAhSTKtpZuFdn7VlaWuKZZ57Bc889BwA4ffo09u/fD41G88Chc48Sj50AmYVraWnB3r17ER8fDz6fjwULFiAqKqpdRc7uoKWlhY3cdnZ2ZuvG0O+WdncvAGyNvfuN8mE29ocNGwaZTAaFQoGkpCQYDAY2ZI1xEDNXR/9n9uPVajXq6uo63dTvCra2tpg/fz4iIyNRVVWF/fv3sx/D4ybCx5IXbAwOhwOdTof4+HjExsaipaUFEyZMwNNPPw0bG5sHapNJkWQCHlJTU1lC7kqEtf0bl8uFn5+fSYBDd8GIVA8PD7i5ueH27du4fv064uPjYTAY2DB4Zq/bOGDVWM8rLCxkCZKJ2btfdYLD4UAul2P+/PnIy8tDVlYW9u7dC09Pzwca26PEYydA4G5OcGxsLAoKCiCVSjFt2rQH0tuA/8QPMot7/PhxnDp16r5EF8PxzMzMsH79ekRHR99XtXmmDeCuQcAUdkxOTsbKlStZ8coQGkOABqPwegZEhMbGRvbdD8qxeDweoqKiMH78eHz99de4dOkSBgwYgIkTJz5Qe48KfwoCVKvVUKvVMBgMJvupjHP1fgiHgfG+sPF1r+cZjlxbW8tG+DDGx/0YAMZwdHSETCaDmZkZW2GBac9YNzUmQOMPpq2O+qCg38O+GOOHieF8nHjsBEhEkEqlGDduHG7duoXc3FwcPHiQTQK/H87FiCrGu8/j8TBs2DAMHjy4XfhVZ89zuVyUlZVh69at0Gg0aGxsfOBcF4Zrjhkzhq2TDYAtHt5WBHfEAauqqhATE4PMzEwT8Xy/u006nQ43b97E0aNHwefzERkZiUGDBj1UHs+jwGMnQGbwgwcPxpgxY/Dvf/8bsbGxbM4qww3vZ5KYeizA3dDwkSNHstUVutNOWVkZ9u7di9zcXKSlpWHcuHEdFg3qCsZEFB4ezkYoMyWHjbcfmbaZcRpz7NTUVJw9e5aNfHmQIpF6vR75+fnYvXs3cnNzERoaiilTprBptY+TAB+7FQzcnXiBQICpU6ciIiICLS0t2L17NxITE1mluzsOWA7nbiYdU35Cq9WipqYGLS0t7N87g7HlKxaLERYWxiY8FRcXt3PZdNUHYyc1U2Wr7TuM72+r8xmjsbERtbW1sLa2hoODg0l1iM7AHAZk7GHYv38/zp8/DycnJ0yaNIlNVnrcJ1T9KQiQWTAfHx88//zz8PT0RHp6OrZv346ioiLWJQHcOxeXw+FAIBCwlZ5qamrQ2trape+urQ/PzMwMo0aNgrW1NTIzM3H8+PFOfXdt3238/8LCQmzbto3NKmS4l7Gv0Lh2ovGzzO+ZrDo7OzuIRKJucWLjvmi1Wpw4cQJ79uwBl8vF8OHDMWHChA6P3Xoc+FMQoDGio6MxY8YMODs748qVK9i+fTsaGxvbFU7sCra2tpBKpbC0tERZWRlqamracR6GGzHEZ8y1OBwOwsLCMHz4cNTX1+Pw4cM4ffo066frCgy3Lisrw3fffYddu3bhxx9/RENDA4DunUTJ/J05OJDJxXFwcOjyOQbGifDx8fHYsWMH6uvrMWDAAMydOxcSiaTbfelp/OkI0MbGBpMnT0ZgYCA4HA4OHTqEXbt2sVYyg64mjs/nw9XVFSKRCOXl5aisrGz3XE1NDc6dO4eYmBgkJSWx56IxcHBwwIIFC+Dj44OsrCxs374dx48fR2tra6fvZQg6Pz8fX375JWJiYtDS0oL+/fuzKaJA95K2dDod6urqkJubC5VKBQ8PDzZDrjvQ6/XIysrCZ599hsLCQlhZWSEqKgoBAQGdhks9DnS7RG9bF8GjVF6N2+JwOLh06RJOnToFhUIBrVaLjIwMCAQChIWFmdzP9IkBBwBDlq2trUhNTUV2dja8vLwQFBTEZmbl5ORg27Zt+Omnn/Drr7/i2rVr0Ov1CAkJYd03XC4XYrEYNjY2SE1NRX5+PnJzc1FfXw9ra2sIBAK2tiHD9SorKxEXF4fvvvsOsbGxqK2txciRI7Fs2TLIZDLW98eMk+m7sbvJmBNnZmbi0KFDbAWH6OhoVnR2NvdMdl9xcTE+/vhjXL582UR98PDwgEwmY/vwsDAuN9JWjegOum3aMZPMNP4oCdCYuGNjY7Fz507k5OTAw8ODJYBt27bBysoK06dPZ59r+37CfxbWw8MDgYGBSEhIQEpKCoqKimBnZwe9Xo/9+/fj8OHD0Ol0sLCwQFlZGSoqKhASEoLIyEh2bBYWFhg/fjzMzMzw1Vdf4fbt2yguLkZcXBz8/f0hk8lgY2MDvV6P2tpa5OXl4c6dOygqKgKfz8eUKVMwZ84c+Pj4mNRxaWlpwenTp9uJf2Po9XqkpqYiNzcXUqkU/v7+99wZYjhbeXk51q9fj3PnzsHS0hJDhgxBUlISEhISsGXLFuh0OgwcOPChndvMs21VmI4KiXaGbhFgW07DfGXGUbgPA2Zxjh8/ju3btyMtLQ0uLi5YtWoVxGIx3nnnHWRmZuLTTz8FADz//PNdimCDwQCBQIA+ffrAxcUFGRkZuHPnDgICAlBVVcUeVcBUw/rXv/6F/Px8XL16FZGRkQDAppgKBAJMnDgRcrkcBw8exNmzZ9nKVYxbhIjYEhZ8Ph8hISGYMGECRowYwR6ZxRBba2srNmzYgAMHDrTTO43B4dw9O6W5uRkDBw6Ej48P+/u29xqvT3l5Od5//32cOnWKrbo1b948nDhxAps3b8bVq1fZdRswYMBDR0O3TeEkIpNSxvdCtwiQy+WioqICqampKCsrg62tLfr27QtfX98H7/nvYDjriRMnsG3bNqSlpUEsFuO1117DiBEjYG1tjTVr1mD16tUoLS3Fhg0bAADTpk3rkvi5XC4CAgLQq1cvnD9/HpcuXTI5bpTP56OhoQElJSXsxDEWJofzn/rPjEM7MjISHh4eGDt2LH777Tekp6ejrKwMra2t7Habh4cH+vbti759+8LT05PNBmPaVKlU+PDDD/Hzzz9Do9HAwcEBlpaWbE1p4zlhCqYLBAKEh4fDzc2NbaejOeRyuSgpKcHatWtx7tw5NDc3Y9asWVixYgVEIhGmT58OnU6HrVu3svvRHA4HAwcOfCgOyHw8Op0O6enpSEtLg0qlgpeXF5vsfq8GuoRer6eTJ0/S9OnTKSQkhHx8fCgwMJAGDx5MO3bseKBcUuP7dDodHTlyhEaOHEkymYwiIyPp559/poaGBjayV6lU0rlz5yg8PJycnZ0pNDSUvvjii9/zZTtOjmKy2LZt20b+/v4UEhJC+/bto4aGBvr000/Jy8uL3N3dyc/Pjzw9PUkikdCLL75ICoWCHbcxmDbVajUpFAoqKSmhvLw8ysrKouzsbMrPz6eKigpqampqF71tMBioqamJ3njjDfLz8yOJRELz5s2jGzduUEpKCqWkpFBqaiolJSVRSkoKnT59mqZNm0YuLi40efJkio+Pv2cCUVpaGs2YMYM8PDzIycmJXn31VTbrjUlBqKyspC1btlBAQAC5u7vT9OnT6erVq+3WpW2+c0c5z8xlMBiorq6O1q5dSwMGDKCAgADy9fWlsLAwWrRoESUlJbFz0BG6JECDwcAmPUulUnJzc6OwsDDy9/cniURCHh4e9OOPP3bYeFfEx9yv0+no2LFjNHLkSJJKpRQWFkY///wz1dfXmxxOYzAYSKVS0cWLFykqKoqcnJwoICCA1q1bxxIM02bbd/322280ZcoUcnFxoZkzZ1J6ejqVlpbSe++9RxERERQQEEBhYWEkk8lIJpPRvHnzqKmpiR1H20T3jtILO/vomP40NzfT22+/TV5eXuTo6EgvvvgiFRcXm2QYMrksLS0ttH//fvZj//jjj6mpqalduD7zgRgMBrp69So9/fTT7Dlvq1evpurqajYzjfnQDQYDVVVV0caNG8nX15c8PDxoxowZlJiYaEKonY2lI2i1WvrXv/5FcrmcZDIZBQQEUGhoKMlkMnJzc6O5c+dSdnb2/SWmM2htbcV3332HX3/9FSKRCK+99hpeffVVDB48GHl5eSguLkZxcTEiIyPZ4jjGF1Mt3vhifl9XV4fz589j586duHXrFqRSKV5//XWMHTsWtra2JgoyIwqlUikiIiKQn5+PwsJCtmZgYGAghEJhO52UqUxaX1+PW7duIS8vD1KpFFFRUejfvz9GjBiBcePGYdasWaisrERaWhqKi4tRVFSE6OhoWFpattseMxY9zL/Mz20DSpk5XL9+Pfbv34/6+no89dRT2LhxIyQSCdtXRmlnQu+/+OILZGRkIDIyEnPnzm0nfon+k3jP1ObLysoCj8fD8uXL8fLLL7PRRMw8Mv20srKCt7c3eDwekpOTUVhYiOLiYnb+ampq2DVqu5Zt17e2thY3b97Ep59+Co1GgyFDhuCTTz7BlClTIBAIcPPmTVRUVEAqlSI0NLRDvbBLHbCkpARZWVlQqVSYO3cunn76afbA6cbGRrz++usoLS3FrFmzTBqmLgwE5j7972fUNjY2QiqV4o033sD48ePZaJi2ILpbeaBPnz6IjIxEQkIC6+UvKyvDypUr8de//rXdMzweD6NHj0ZSUhJOnz6N3bt3Izg4GAMHDoSfnx+Au0bQhx9+CKK7xRaZEm7BwcGsQm08LmO9Dui4QDezd5uVlYWLFy9CoVBg3Lhx+PTTTyEWi008CszP1dXV2LNnDy5dugQXFxeMGTOmnd+OQVVVFb799lvs2bOHdbRbWlpCLpez1rKx28f4eWdnZ8ydOxcWFhbYsWMHEhIScPv27XYuHuOPrDMwpwM4Ozvj1VdfRd++fdmxFxQU4NSpU8jIyEBTU1P3y7MZN65Wq9mTL5kjCczNzdlIFa1Wi/LycjbEhzqw6LqCq6srXnvtNYwbNw4WFhad7ngwX/D27duxY8cOmJmZQSgUQqlUIiEhAatWrcLs2bMxZ84cNvCA4Uju7u6YOnUqcnNzcefOHWzatAmurq7w8/NjdzdEIhE+/fRTaLVaxMbG4vz58zhx4kSnBMj0pzNDiCFKJvhg3Lhx+OCDD1hnclviaGlpYbfMhEIhRo8ejYkTJ3ZYVSoxMRHbtm1DfHw86uvr4ePjg7q6OjQ0NGDNmjWwsrLC5MmTTfpu3G/g7gkFzz33HNRqNb766itUV1eb9Km74HA4sLKyYo+0MDMzg16vh6OjIxwdHaHVaqFWq9nQL+M15XA4ndcHJCI4OjrCyckJer0eFy9exMiRI2Fvbw+DwYDY2FioVCpYWVnhzTffZE/Y7m78HnOPr68vAgICWOLraMLod9N++/bt+Pjjj2FmZgaZTIbNmzcjLy8Pn3zyCUpLS7F582YkJyfj5ZdfRmhoqMmAR4wYgby8PGzevBmXLl3Cp59+irVr10IikbA7D0xdGFtbWyQlJcHGxqZdDeaOiLGr8arVavj5+eGjjz6CWCyGVqtlHdhMWTidTodLly7hs88+Q1NTEyIiIjBr1iyIRCL2/RwOB42NjdizZw++/vprlJSUgIgwYsQIrF27FgUFBXj11VfR0NCA1157DVZWVhg5cmQ7omLa4vP5kEqlWLhwIQYNGoTy8nKTBKnugqkxWFJSgsOHD2PBggUwGAwoLCxEQkICLC0t4eTkxLqi2qFT7fJ37Nq1i4KDg0kmk9GIESPorbfeomnTppGnpycJhUJaunQpm1DdlbLaFbrK+WUqRn322WckEolILpfTiBEjKDMzk73n9u3b9OKLL7IVmoKCgmj9+vVUUlJiUiFKqVTSe++9R76+viQSiWju3LlUXl7e7v1arZYaGxuppaWFvZqbm02upqYmampqoubmZpP72l6MVcxYksbjUqlU1NraSrGxsdSvXz9ydnamYcOG0fnz51mjhBn/xYsXafr06SSXy0kikVBISAht3bqVamtrWQX//PnzFBoaSl5eXuTi4kJ79+69p+HE/NxVqZWurtbWVho1ahQ5OjqSv78/LVq0iN544w0aMGAASSQSGjRoEMXGxppYzcYGSacEyNygUCjoH//4B/n6+pKjoyPZ2NiQUCgkOzs7GjVqFBUWFrITqtFouuWG6cwq7ghqtZq2bNlCzs7O5OzsTEOHDqXbt2+b9JGIqKysjDZu3MiWWJPL5TR+/Hjas2cPVVZWsse8VlZW0sqVK8nb25vEYjHNmTOHsrKy2FJqxgTSmfvI2D3R2XiNidp4cZlFUKvVVFdXR4cPH6Y+ffqQq6srRURE0MGDB9lnlEolpaWl0T/+8Q8KCAggkUhEbm5uNG3aNLp8+TJboMn4HadOnaKAgABydXUluVxOhw8fJrVabdIvnU5HBqMjdI1L4HXmjunqio+Pp4iICHJ0dCRbW1uys7MjkUhEffr0oe3bt7N00REB3rNIObOJ7enpCXNzc4jFYvj7+2P69Ol49913IZfLWdH0IOW9ALD1WnQ6HVpbW9n9RZVKhR07drAFML29vbFx40aEhIS0E3u2trYIDw9HSEgIGhsbUV1djYKCAly4cIHdtWBOsYyKikJ1dTVrSd+4cQOBgYGsyGMiqtvqQ12Noe19HemGxkZLc3MzfvjhB7zzzjtobm6GXC7HqlWrMHHiRDQ2NiInJwe7d+/Ghx9+iIsXL4KI4OXlhUWLFmH16tUICAgwCU5l/vXx8YGvry/i4uKgVquRmJgIb29v9qiElpaWu/pYG8veuJ37WUfmSIbBgwfDwsICAoEArq6uGDp0KJYvX47nnnvOZH+97VzcV3EilUoFlUrFnpHW2aP3Y4To9Xq0trYiPT0dCQkJqKiogEQiweDBg3HhwgVs2bIFBoMBfn5++Pzzz9G7d282jL3t5DGoqqrCrl27sHv3bjQ3N0On08HKygqBgYEYM2YMRowYAVtbW+zcuRMHDhxATU0N7O3tsWLFCjz99NOQSCTg8XjtwvjvY6pMjDKm+LfBcPf0+Nu3b2Pjxo2Ii4uDubk5evXqxVqQ6enpiImJwaVLl1BWVgY+nw8zMzPI5XLWTcX0qzMYDAZcuHABq1atQnl5OWQyGd5++21IpVJcunQJDQ0N8PX1xaBBg+Dt7f3QsYHG69DS0gKtVgs7O7tO82hM9Pz7IcC2L2VcCB25ILqL2tpa/PTTT/j+++9RXFzMWm5SqRSNjY3QaDTo3bs3Pv/8c7aifVd9UiqVSExMxJdffolr166xx6RWVlaioqICPB4PHh4eGDZsGPr374+0tDTExMSgtLQUBoMB/fv3x5w5cxAREQFHR8d2ecn3Mzai/+QhK5VKFBUV4eTJk/jhhx9QXV0NOzs7hIWFYfLkyaivr8eZM2dw69Yt1NXVwdraGjKZDEKhEAUFBWhpacbo0WOwaNEiBAYGsoZMR2C29k6ePIn169cjNzeXzcxjQtPMzMwQHByM+fPnY8KECbC0tGTn/n73940JsC1TaEtebefvgU9M72oh7rVIDPFqNBocOHAA27ZtQ01NDfz9/RESEgIzMzPU1NRAp9PBy8sLGzZsYEOljAfITBiz0CqVClevXsUXX3yBq1evQiKRYMGCBVi2bBn8/PzY05fKysoQHx+PuLg4tgRcQ0MDzMzMUFhYiFOnTiEzM9NEBBsfoNNW7BmPiQFzhGtFRQUyMzPxyy+/YPPmzWyQgJmZGUQiEcRiMc6cOYMDBw6gsLAQFhYWCAoKwoQJE7B48WJMmjSJje27efMmampq4O7uDrFY3KnHgbGu/f39IZfLcfHiRTZPuk+fPvD39wdw14LNzc2Fh4cHvLy82o2vu2jrO+xsjjpq96GTku63swajXNji4mKcO3cOlZWVGDJkCJYvX46QkBBkZGRgw4YNuHLlChwdHU3O/DX+yox3S5qbm3H9+nV88cUXSEpKgqenJ1588UVMnToVDg4O8PPzw6hRo3Dz5k1cvnwZv/32G/Ly8nDt2jXWccqUstBqtTh79iwuXrwIPz8/REZGIiQkBJ6enrC3t4ednR0sLCxM4gGZw1zUajVaW1tRUVGB27dvIz4+HmlpaVAoFGypXvrdrVRZWYmioiJYWVmhV69eCAgIQP/+/TFw4ED2YBoAmD9/Pvh8Pvbt24dTp06BiLB06VKEhIR0mCPCcEAulwtfX1/Y2NigtbUVw4cPx7Jly+Dk5IQrV65gy5YtyM3Nxfnz51mO/7DoSvftCH94Vpxx4jhzUrmlpSXGjRuHyMhIWFpaon///hg+fDgSExPZMzDs7Ow6jV9TqVTsca+JiYlwd3fHzJkzMXnyZNjZ2bEEKxAIEB0djQEDBqCoqAjJyclISkpCWloaSkpK0NLSArVaDQ6Hw27DZWRkIDMzE1ZWVnBycoJEIoFMJoODgwNsbW3ZGszMrg4j6svKyqBQKKBSqWBubs62R787r21sbODg4ICAgAAEBwcjNDQU/fr163C3QCaT4YUXXmAlxtmzZ8Hn87F8+XL4+/ubHNcF/Kc6FsM5q6qqIBQKMXHiRPZ0qQEDBiA5ORkZGRns6fCPo0rCY0nL7ExXYEQps0iM2GNCotqCfo+vu379OrZs2YLr16/D29sb06ZNw9SpU9kJNV4cJlfX09MT3t7eGDt2LEpKSpCWlsYeA1ZRUYGamhoolUq2HIZOp0NpaSkKCgpMdjAYY4jpO3BXv+Lz+bC2toaNjQ27U8BYiBKJBD4+PggMDIS/vz+cnJzaibC243R3d8eCBQvA4/Fw+PBhnDlzBjweD4sWLUJwcLCJTmismzNzzagsxvPAHMLD6H3GH8gfhT+MADsy911cXCCXy3Hr1i3ExsbC2dkZfn5+KC0txa+//gqlUonIyEgIBIJ27TFEwYjdhIQEeHh44IUXXsCzzz4Le3v7dgvA7AAYL7K1tTX8/PzYfWEmDbKwsBBVVVWorKxEZWUl6urqoFQq0dLSwp4qZFxMyNzcHGZmZuxJUlZWVhAIBBCJRJBIJHBxcYFUKoVMJoO9vT3Mzc1ZVw/Tn47cIsY/u7m5Yd68eSAiHDx4EMePH4dWq8WyZcsQFBTEVuZnwOVy4eXlBalUioqKChw+fBhOTk6wsbHBjRs3EB8fD0tLS7i7u8PR0bGdTtu2Hz2BP5wAjSGRSDB06FDcunUL165dQ11dHVvPOCcnBw4ODmxkRdu2VCoV4uPjsXXrViQlJcHd3R2zZs3C1KlT2yWh38tKN/6/UCiEUCiEl5cX+zulUskeQaBSqdDa2gqNRsMe5sfhcFid0MzMjD0ZyNraGnZ2dia6YttxdLS11xbGv5PL5Zg7dy4AYP/+/Thz5gy4XC7+/ve/IyQkpF1gK3Pa07Zt23DmzBmUl5fD0dERd+7cQUlJCfr06YPBgwfDzs7O5F3GUqon8YcQICOeGCuLEVXm5uZs6uOxY8dQWFiI7OxsmJubw9fXFxMnTsTo0aNNFG3D7znCiYmJ2Lx5M1JSUuDh4YGZM2di2rRprP/pUYkRDocDa2tr9swS498bqwxty2v0JOdwd3fHvHnzYDAYcOTIEZw+fRoajQavvPIK+vTpY2IdW1pa4vnnn0dDQwN+/fVXpKenQ6PRwNraGgMHDsSUKVMwYMAAAB1H9Rijbbjbo8AD+wG7C6VSidzcXBQUFEClUkEsFsPPzw8SiYQdbFNTE1JTU5Geno76+nrY2NggICAAkZGRLEExg9fr9bh8+TI2bNiAxMREeHh4YMGCBeyZbg/ix+oOGGJruwNirPt1FYhxv9PcHVdWUVER/v3vf+OXX35hM/BWr16N4OBgk+cNBgMUCgWuXbuG/Px8KJVKiEQi9OvXD4GBgezHpdVqUVxcjJycHDQ1NUEgEMDPzw9yuZw9/PFRf1g9QoDMQjFl144dO4aCggJ24KGhoZg8eTLCwsJYLzwjVjUaDatPMYM1rg8TFxeHDRs2ICkpCS4uLli0aBGmTp3K6nw9pUC35X4d/e1eOlR3p7o7i8wQfUlJCb755hv88ssvaG1txVNPPYXVq1cjMDCwQ78pY1RZWlqa+Dabmppw6dIlxBw+jLS0NDQ1NcFeaI/AoEBMnDgRQ4YMgbWNDUAAofO5uF88sCP6XmCOcd+0aRPS0tJYq7CiogIpKSlQKBTw9fVlC+QAd90HjC7VlpCY47o+/PBD3Lx5E1KpFIsXL2b9fD1JfADacb6O/tbd393rup/+2NnZwc/PDwaDAZmZmcjOzkZpaSl8fX1Nqou1nWPjQyWZcLCtW7fezSPW6SGwFaC2tubuCe25efDz84PM1RVc7oPvenWEHtEBOZy7lUn37t2LkpISREVF4fnnn4dYLEZCQgL27NmDy5cvw97eHuHh4R0ulPGXy+Vy0draigMHDiA5ORlyuRyLFi3Cc889x5bffdxFdh4XOBwOZDIZ5s2bBwD4/vvvce7cORARe7CNsb7KgOGOXC4XSqUSFy5cwK1bt+DvdzfQxN/PDxkZGfj555+RnJyMIzExCA4OhtC+vZ/yYdAjBKjValFUVISMjAw4OjrimWeewfjx42Fubg53d3eUl5fj6NGjOHnyJM6ePdvu+bYWGI/Hg0ajQV1dHZycnLB8+XJMmDChneX2vwq9Xs+qIxwOB19++SXOnz+PGzdumBCgsZuHIUDm74zDfPTo0b+7sYTo168fKisrUVhUhN+SklBdXQ2B0O6RznePECAT4aLVamFra8tWByUiODg4wNnZmdU9mMgaoH0IPvMvcx+Ty/DMM8+wOwb3Mxmdbbb3hHL9R4LRkZ2dnTFv3jzw+XwcO3aMjcYxrjgL/Ed8M7q6VquFUqm8G2kul8HeXggyEOyEQrjKXOHs5ASn3/eeQQCH+ycnQEtLS0ilUggEAtTX1yM+Ph4REREQhuiYUwAAAexJREFUCATIz8/H7du3oVKpMGzYMLYeNIO2Ogvzr+H3Qo5MwveDuAQ62035byY+wHTOpFIpFi1ahFGjRpl8cAz360gkFxQUYPfu3UhJScH1hOsYOGAAPL28UVRYiKSkG9Dr9bC2sYG3r88j73uPECDzNUZHR2Pv3j04duwYqqqq4OzsjFu3biExMRFCoRDDhg3DX/7yFxM/X2fEwGyhMV/1o/Tz/f8CZixCoRB9+/ZluR+DtpY5Q6C+vr7IyclBeno6zpw5g6amJnh7eyM3NxeJiYngcjnYtfvbHulzjxkhjo6OWLBgAcrKynDlyhW2yihTkmLGjBkYPnx4l+eAGOsszM9dTegT3EXbssZt9b+2uy9M/ZvS0lIcPXIUsbHHWd+rmZkZZsyY0WN97VFHtE6nQ05ODk6cOIHExEQ0NTVBLpdj+PDhiI6OhqOjo4m/ryv8/yAqHzc62gpkJIlGo0F5eTnO//orLsbFobq6Gs5OThg6dCieeuopyH9Pjn/U6PGdECZQVKlUsmLU2tq6XQ7wEzw+GEsZJp6RqeRvZWXF7nH3BHqcAI2VXeZnxgP/BI8fbSsnGBsrzHo9SGX+7qJHCbCzfADjgT3Bnx89EYTAoMc54BM8QVd4Igef4LHiCQE+wWPFEwJ8gseK/wcOcn+m4P8BtQAAAABJRU5ErkJggg==;" parent="FI92FZoO_AwsKUyX61cm-38" vertex="1">
          <mxGeometry x="40" y="171" width="160" height="93" as="geometry" />
        </mxCell>
        <mxCell id="FI92FZoO_AwsKUyX61cm-41" value="" style="shape=image;verticalLabelPosition=bottom;labelBackgroundColor=default;verticalAlign=top;aspect=fixed;imageAspect=0;image=data:image/png,iVBORw0KGgoAAAANSUhEUgAAAG8AAABzCAYAAACW0VyAAAAgAElEQVR4nO2deVSV553HP/deLlyWyyb7LiA7sguoaFDGTIzRE9OapTWpSaeZZM6kOZmTTDP/TDrLaTNtp8k0bdJO0tg2mWjIZOJRaxJRUURkU0RkB2VfRFbh7veZP8z79l5AgwrE7XvOPcDlfZ/3eZ7f+/ye3/4ohBCCe7gtofymO3APNw6Hb7oDtyJGR0e5cOECSqUSX19fPD090Wg0ACgUCgCEEPLv3xTuEc8GQgiGhobYs2cPn3zyCQ4ODqSkpJCUlERERAT+/v74+fmh0WhQKpV290mEXEyCKu7teVcm32w209/fT2FhIR988AF9fX04ODhgNpvRarWEhIQQHx9PcnIykZGRhIaGEhAQgKenJ1arFYVCIX8WC3c98axWK0II2tvb+eMf/8inn36KXq8nMzOTuLg4Lly4QHt7O319fUxMTODi4kJgYCDLli0jISGB5ORkgoODCQwMxMPDA7VajVKpXBS2elcRz2q1yhMLV1icwWCgsbGR3//+9+zfvx+FQsH69et55plniI+Pp7e3l7a2NlpaWmhpaaGtrY3u7m5GRkYA8PX1JTIyktjYWJYtW0ZERAQRERGEhoaiVCoXlIB3FfHMZjMODg5YrVYALBYL5eXlvPvuuxw5cgRXV1cefPBBnn76aeLj4+XrAIxGI0NDQ3R0dNDR0UFDQwPnzp2jtbWV4eFhzGYz3t7ehIaGEhYWxquvvkpkZKT8wiwE7iri2Q7VYrFw+PBh3n77bSorK/H09GTbtm1s376dpUuXytcoFIoZwonVamV4eJjOzk46Ojpobm7m3LlztLW10dvby/j4OG+++Sbbt29fUPZ5VxFPWgUWi4XCwkLee+89zp07R3BwME888QTf/va3CQ4ORqFQYLFYMJvNwBWC2U6TRAxpv5ycnGRwcJDOzk7+67/+i7KyMh599FHeeeedBRVi7gpVwWKxoFKpAJiamuJ//ud/ePfdd+no6GDp0qX87d/+LRs3bsTb21uWHIeGhigqKqKxsRFHR0eZULbEkNiqSqVCo9FgtVqxWCy4uLhQV1fHwMAAgYGBCzauO5p40kqThJT+/n527txJYWEhvb29JCUl8cILL7Bu3Tq0Wq18j8FgoKysjHfeeYeOjg75e8BOn5MIKrUvrU6lUkljYyPl5eVs2bIFq9UqvzzziTuKeNIEShMKcOnSJerq6qiurub06dNUVlYyMTHB2rVr+eEPf0hmZiZOTk527Zw/f55du3bR0dFBSEgI0dHRqFQqOynV9nkKhULeC5VKJWq1momJiRkEn2/cccSTfjY1NXHs2DGqq6s5d+4cPT096HQ6HBwc8PLy4uWXXyYzM9NuLzObzQwNDfHpp59SVlaGv78/3/ve99iwYYPdypJYp+3Kk/ZSQF6Jnp6e9/a8uUCaSKPRyGeffcauXbtoaGhgYmICs9lMZGQk/v7+1NbWMjU1BSALJtIq1ev1lJWV8dlnn6FSqbjvvvvYtGkT/v7+ANcU+b8JO+cdQzy4Iph89NFHvPPOO3R3d+Pl5cXGjRvJyckhJycHg8HA3/zN33DhwgUOHz5MZmam3f0XLlxg586d9PT0sGrVKh5//HECAgK+cQP01XDHEE+hUHDy5El27dpFZ2cnqampvPTSS6SkpKDVanF0dESpVJKVlUVrayulpaWMj4/j5uaGEIKLFy+ye/duqqurCQ0NZevWrSxfvtyO7d1qWtVt7c+ThAS4wvKOHz9Oe3s7ERERvPTSS6xduxYfHx/UarU88evXr8fFxYWGhgZqampQKBTodDqOHz/O7t27UavVrFmzho0bN+Lg4HDLrjpYIOJJEyVt4F93re1nrv+TrB/S752dnTQ2NjI5OUl+fj6JiYmykdjBwQEHBweUSiUFBQVERUUxNjbG559/Lt/7q1/9iomJCdLT03nmmWfw8PCwe+bXrbrZ+mcymdi/fz///M//LCv884kFYZuS6CyJ15LiK2G6teJqb7ck0UmCgmSbhCvCw+TkJHV1dRQVFVFcXMz58+dRKpWEhobi5uY2o12z2Yy7uztZWVk0NTVRUVHB2NgYO3fu5MyZM4SFhbFt2zbi4+Plfl4PqzSZTPIqVyqVfPTRR/z4xz9GrVazdetWUlJS5tzWXDDvxJtuhVAoFKhUKjufl3TdXOx+VqsVq9UqE02v18sCR1FREWfPnmVoaAir1Yq7uztKpZLh4WFMJtOMtqQ2Nm7cyMcff0xXVxevvfYaxcXFuLu7U1BQwMMPP3zdY5bGICniFouFn/zkJ7zxxht4e3uj1+vZu3cviYmJdv24Wcy7bVMyEel0OgYGBmhra6Onp4fJyUmEELi4uBAWFkZsbCze3t5oNBq7vWU2Yur1erq6uigpKaGoqIhTp04xMDCAEAJXV1dCQ0PJzs6mr6+P0tJSMjIy+NnPfkZsbOwM1qdUKpmYmOCBBx6go6NDdrguX76cN998k+joaDvFe66Qtoje3l5effVV9u3bh4eHByqVCovFwrJly/jDH/5AUFCQ3ct4M5iXV0DquMFgoL29naKiIo4ePUpbWxtDQ0OYTCY7C4SLiwve3t5ERkZSUFBAfn4+ERERqFQq1Go1JpNJdsEcP35cVra7u7sxmUy4uLgQHR1NSkoK9913Hzk5OYSHh7Nnzx6am5tpaGigsbGRsLAw1Go1Dg4O8h4phMDZ2ZnVq1fT2tqKs7Mz3t7ePPvss0RERNjZQa/G6qW/pfYkv2BdXR2vvPIK9fX1eHp6smHDBlatWsW//uu/0tXVxaFDh3jqqafmTWq9KeIJIeSNuaenh08//ZSPP/6Ynp4eFAoFarUab29vPD09cXFxQaFQMDk5ycTEBJcuXZJX03vvvccTTzzBtm3bUCqVnDlzhkOHDlFeXk5HRwdTU1M4OzsTFBREXFwcq1evJi8vj8jISJydneXJTkxMJCoqiuPHj1NdXc2qVavw9vYG/sLSpH1z8+bNfPDBBxgMBuLi4ggJCWFsbAxXV1d5r5XcQRK7t510W4V9cnKSffv28dOf/pSLFy/i5ubGU089xT/90z/xySefyHvh8PCwXV9uFjfMNqXbxsfHKSkp4a233uLUqVM4OzsTGhpKSkoKK1asID4+Xg7agSsscHBwkLq6OioqKqiurpbZanZ2NhaLhYaGBiYnJ9FqtQQEBBAdHU1OTg4rV64kISEBNzc3uQ+2e6nZbOY//uM/+O///m9iYmJ44403iI+Pl6+TWJUQgkuXLvHd736X06dP4+zsjLOzM8uXLyc7O5usrCzCw8Nxd3fH2dkZR0fHGeOXpMehoSF+97vf8eGHHzI1NUVQUBB///d/z+OPP87p06d55plnGBoa4r777uPnP/85AQEBwLWtNXPFDa88i8XCxMQEe/bs4c0336S3t5egoCDy8/N55JFHSEtLw9XV1e4eiW2Gh4eTlZXFo48+SlVVFbt27aKkpIS6ujqEEDg5OZGcnMzatWvJyckhJSUFb2/vGWxsuq1RrVaTlJREYGAgra2tNDY2snTpUpydne3utVqtuLi4sHbtWk6dOiVLrsXFxRw9epQlS5YQHx9PZmYmqampREVF4enpiZubG05OTiiVSqxWKy0tLfzmN79h7969WK1WUlJSeOWVV8jLy2N0dJSf//znDA4OEhISwrPPPjsnM9v14IaIJzkg9+3bx89+9jPGx8dJT0/nO9/5Dps2bcLT03PW+2zjRwBcXFzIy8sjIyODjz/+mD/+8Y90d3djNpu5//77ef7553FycpJXlWQABmYIONLes3z5csLDw7lw4QLHjx9n9erVaDQaO+JJ/rc1a9bw/vvvYzabyc7Oxs/Pj4aGBvr7+ykrK+PEiRN4eHiwdOlS0tPTyczMJCYmBnd3dxobG/nd735HaWkpWq2WvLw8XnzxRRISEtDr9Xz44YeUlpbi6enJo48+ytq1a29kqr+WENcNg8Eg9u/fL1JTU0VYWJh46KGHxJEjR4TVar2R5oTFYhEWi0UcO3ZMrFu3ToSHh4uMjAxx4MABuc3Z2rZarTM+RqNR/Pu//7uIiIgQa9asEXV1dcJsNguz2Tzj/tHRUbF161bh7+8vnnvuOTE4OChqamrEH/7wB/HKK6+ILVu2yGMMDAwUUVFRoqCgQDz99NMiNzdXhIaGipSUFPEv//Ivor+/X+7DkSNHRFxcnAgODhbPPPOMGBoauqF5+TpcN/GsVqtoaWkRmzZtEkFBQWLDhg3i4MGDV52gucBsNguTySSsVqs4dOiQyMvLE35+fuLBBx8Ura2tdsSZ3pfpHyGE+POf/yyysrJEUFCQ+PDDD8XU1JTQ6/Uz7tfpdOKNN94QAQEBYuXKlaKyslJud2pqStTX14vdu3eL1157TTzxxBMiJydHREZGioCAABEcHCzy8/PFe++9J8bGxuSxd3R0iIceekj4+fmJ3NxcUV5efkNzMheoXnvttdeuZ6UajUZ+//vf83//938EBQXxgx/8gC1btsyQyqbvT9ONu9J10t8SS42IiMDZ2ZmKigr6+/txcnIiOzt7Vjvj9L+l57i6ulJVVUVbWxvu7u6sWrVK1idtIZnODh48yPDwMOHh4aSlpQHg6OiIr68vCQkJ5ObmkpmZSWJiIkuXLsXd3Z3IyEiefvppHnroIVmAunz5Mr/5zW/Yv38/bm5u/PCHP+TBBx/EbDYviCf9ulae1WoVTU1NIi0tTQQHB4sXX3xRjI2NXZVdWq1WmSVaLJYZq8dsNtt9L7G9iYkJ8Xd/93ciICBArFmzRtTU1MjtfV3/pGf+8pe/FJGRkSIrK0vU1tYKg8Ew43qLxSIuXrwonnrqKeHn5yd27Nghs7irsWmTySS6u7tFZ2en0Ol08tjMZrMoLCwUiYmJwt/fX7z00ktCr9fPqd83ijmJPZKjE+DLL7+ks7OTgIAAHnroIbRa7VVNXJLRt6SkhL1797J3715KSkro6+vDYrHYxUVKUCgUODs789hjj+Hh4cGFCxcoLi7GbDZ/rSnNdtVnZmYSEBBAd3c3J0+enPVZ4isLzZo1a1CpVLS2ttLU1CSrFtK4bT8qlYqgoCCCg4NRq9Xyc5uamti5cyeXLl0iMTGR5557DkdHxwUN/ZuTtCl1wGQycfjwYaxWK0lJSaSlpV21c1NTU1RXV7Nnzx5Onz4t2x99fX3JzMzkW9/6FsnJyTg4ONi1IRmzk5KSyM7OZt++fZw6dYqxsbEZ6sLVoFAoSEhIIC4ujpaWFo4ePcrDDz8s65q249JoNGRlZREREUFPTw8nT54kJSVF9kjY2mMl1i7peJL0Ozw8LIcRenl58cILL8hmtoUKPoI5Ek/qfG9vL83NzWg0GnJzc/H09JTDCISwjwU5ffo0v/71rykrK8PJyQk/Pz+sVitdXV20tbXR1dXFq6++SkJCwgzx32q1otFouO+++/j8889pb2+nu7ubJUuWzNo/aVXYBsharVZ8fHxwcXGhqqqKEydO8MADD6BSqeRrlEqlvKIDAwPp6OjgyJEj8r7p5OSEk5MTjo6OODk54ezsjJOTE2q1GrVajUajQaPRcOjQIQ4cOIDFYmHbtm0UFBTI41nIvIU563kKhYLz588zPDyMu7s78fHxM4QO6bqBgQH27t1LeXk5oaGhbNmyRRYEKisr+fTTTykpKSE2Nla2ZEwfoIODAzExMWi1WkZGRujs7CQ5ORmwV3KlZwshGBsbo7Ozk4aGBs6ePUtFRQUWi4XR0VF++9vfYrVayczMRKvVotfraW1t5ezZs9TU1NDe3g7AmTNnqKurQ6VSybZWtVqNo6OjTCxHR0fUajWurq5oNBrq6+sZHh4mLy+P7du320WjLaQz97qU9N7eXnQ6HaGhobK1YDaWcOHCBU6ePIlKpWLz5s1873vfY8mSJSiVSpYvX87o6CiFhYUcPnyYJ598End3d7skEMmC4evri4eHB6Ojo7IXQdhIp1arlcuXL9PR0UF9fT1nz56loaGB9vZ2hoaGUKlUhIWFMTk5yalTp/jFL35BYmIi3t7ejI6O0tLSQmdnJxMTE7i6upKYmEhwcDAGg4GpqSl0Oh1GoxGj0YjBYGBkZASTySR/pH3UZDIRGhrK888/T2ho6IKxyemYM9sUQjAxMSFHBEtBqtPfLCmOf2hoCF9fX9LS0vDx8ZGv8/PzIzs7mz//+c8MDg7S398vZ9TY2imFEKjVatzc3BgaGkKv18ttGI1Genp6OHfuHDU1NdTV1dHW1sbFixexWCz4+vqycuVKMjMzSU9Pp7+/n127dnHmzBmamppkw7NarSY8PJx169aRmZlJQkICXl5eWCwWjEYjZrMZk8mE2WyWCajT6ZiammJycpLx8XEMBgPj4+OyXVStVi9a6MScBZbZWNVsUCgUODg4yA5YWy+67ZsqtSG9pbZvq2RElgQCiaDDw8OcOnWK06dPU1tbS3t7OwMDAxgMBry8vMjIyCAzM5OUlBQiIiIIDAzEy8sLvV5PQkIClZWVNDc3Mzo6KutqUn6dv78/Wq121v1J6qvkq5TyGIxGo+xV0Wq1M2yoC43rYpuSp1qn0zE+Pk5QUNCsTktPT08CAgJoamqipKSEhIQEQkJCUCgU9PT0UFJSwujoKFFRUfj6+topz5IAZLVa5TdcCEFxcbG8yvr7+9HpdLi7u5OQkEBWVhYZGRlEREQQEBCAh4eH3KZCocDFxYXU1FTi4uIYHR1Fp9Ph6OiIm5sbHh4edn2fbfJtJeHFYolzwZxXHkBoaCharZZLly7R19dHbGzsrIONiooiJyeHxsZG9u3bh16vZ9WqVQghOHr0KMePH0cIwV//9V/j6+t71Tf90qVLsg+soqICs9mMRqMhMjKSjIwMVqxYQWxsLH5+fnh6esoJIVcL15NcP7Yi/ELqYQuN6yJeeHg4S5YsYWBggLq6OvLz82cEFwF4e3uzZcsWOjo6OHjwIIWFhXzxxRcolUr5zd+8eTOPPPKIbFqSIAktJpOJmpoaxsfHZb9eWloaq1atIj4+noCAALy8vOwUZVv2/nWs/VphF7cL5kQ8iVX4+/sTFxdHb28v5eXl7NixY4bPTrJCJCcn8/LLLxMZGcnRo0cZGhoCIC4ujr/6q7/ikUceISIi4qq20KmpKUpLSwHIzs7mpZdeIigoSC6rMZtP7HoIsVDZqouJOUubJpMJBwcH1q9fT1FREXV1dZw4cYL169fbTYQ0gWq1Wha9t2/fzujoKEKIGXVNbO+R2JnFYqG6uprKyko0Gg1r164lOTlZzsC5hyuYs8Ai7REPPPAA77//PufPn+eTTz4hJydHVhskSCxLoVDg6emJh4eHHKQkBQPNdr10j8Vi4cMPP2R0dJSkpCTy8/Nl6fMe/oI5z4aTk5O8ch5//HEAysvLKSwstLvOlhCSUm0bzCNBpVLNKqkqlUp2797NgQMH8PT0ZOvWrcTExMjX38NfcF2vskqlwsnJiSeeeIIVK1bQ19fHO++8w5dffmlHCEkgsDXo2pa1sBW3peuk1XjkyBF+/OMfywkgHh4esr54D/a4IT7k6enJP/7jP+Ln58fAwAA/+clPKCoqmjUK+utWi3SPg4MDpaWlPP/887LiK8X663S6eyxzFly3J11CQEAAYWFhHD9+nO7ubiorK3FycpJZnKRoz4WYU1NT7Ny5k5dffpmJiQkCAwNZvXo17e3tDA8Pk5CQQHR09I2P8k7FjXpxLRaL0Ol04qOPPhKpqakiMDBQREdHix/84Afi2LFjYmxsTBgMBmE0Gu286RaLRZhMJqHX68X4+LgoLi4W27dvF4GBgcLf31/ExsaKwsJC0dfXJ1auXCkCAwPFP/zDP9xwfMydjBteeZINMzo6Wi7z1NXVRVNTE4cOHaKmpoaRkRH0ej1Go5HJyUkuX75MX18fDQ0NHD58mN/+9rf86le/oqmpCY1GQ2pqKr/4xS+4//77Aejr6+PEiROyZ9zPz29eX9zbHTedaCK+Cnnv7e2lsLCQffv2cf78eTnv293dHS8vL1la1el0TE5OMjo6isViwcvLi4iICDZt2sR3vvMdfHx8gCsO3aqqKnbs2IHJZOKFF17gueeeu6fn2WBeiCf54sxmM6Wlpbz++uucOXMGV1dXHB0dMZlMWCwWhBA4Ojri4uKCu7s74eHhZGdns2HDhhnZOZIX4Uc/+hF79uxh/fr1vP7664SGhs7X2G973HSWkJR/B1cU8OTkZNasWcO5c+fw8fFhy5YtBAUFMTk5CVzRF318fFi6dClhYWFotVrZqiIZiqXVrNFoKCgo4NChQ7S0tFBRUSETT9ioJXcr5jW5UqFQ4O3tzYoVK9i/fz+Dg4N4eXmxdetWnJ2dgZmed/GVLVT6XdL7pJjK7Oxs4uPjOXv2LKWlpRQUFMie91vJPfNNYN6VJ4VCQVRUFOnp6UxOTlJeXk5XV5dd+OD1wNPTk4KCAkwmE2fOnOHcuXPzlt92u2NBNN/AwEBWrFiBt7c3Z8+epbGx0S5HHeae7+3i4kJ2djZhYWF0d3dz4sQJDAaD3MbdjHknniSUJCUlkZiYSH9/P5WVlQwNDdkFr84VDg4OREZGsmrVKi5fvkxFRQWdnZ125re7FQtCPCEES5cuJTMzE41GQ2VlJW1tbcD1CxgKhYIlS5awdu1aPDw8aGlpoaqq6q5fdbBAbNNqtaLVaklLSyM8PJz29naqq6sZGxu7rnYkqdPBwYGEhATS0tIYGhqivLycwcHBhej6bYUFEVikT2xsLMuXL0en01FaWkpXV9d1rRhbj4O/vz9r166Vc9Zra2vv+tW3IMSTfG/+/v6kp6fj5+dHfX09zc3NGAyGGa6ja3bwK1eSq6srKSkpLF26lM7OTqqqqmQrzt1KxAX1s6jVatLS0khISGBkZIQTJ07Igst0T8O1CCn5A8PCwli1ahV6vZ6qqipaWlqAe8RbMERGRrJixQo0Gg0nTpygra1Ndqxe76T7+PiQm5uLn58fTU1NVFZWYjQaZyS63C1YcOI5OzuTkZFBZGQknZ2dVFdXc/ny5RtS2tVqNcuWLSM9PV2Onu7p6bHLo7ubsODEE0KQmJhIeno6CoWC4uJi+vr65BhLW93PVoGXki8lw7e0WkNDQ1m9ejWurq7U1dXR1NQ0I8zibsGCE89isaDVasnKyiIwMJD6+npqa2vR6XSzxqVIeQy2eW22JTykYjdJSUl0dXVRWVnJ8PDwXbnyFrzSrWQ8Tk9PJz4+nqKiIo4fP05eXp4cPGu7YqS/JycnaW1tlQ9hGhsbk2NdlEoljo6OmM1mKisraWlpYcWKFQs9lFsOC048iTBhYWFkZWVRWVlJWVkZ7e3t+Pj4zAgsamlp4YsvvpClybGxMfR6PQaDQXYbSQmParWa1tZWvvzySzlP/G5inTccBnHdD/oqKKmmpoa2tjb8/PxITU1FrVajUqm4ePEib731Fm+++SYHDx7k3LlzXL58GY1GQ0BAAFFRUYSHh+Pt7Y1SqcRgMDA5OYnRaKSlpYXTp0+jVCoJCgqSE/nv9IizRSkQLu1FiYmJpKamUl9fz7Fjx3jsscdwd3fn2LFjvP7669TU1GA2m3F1deX+++8nPz+ftLQ0vLy8cHd3R6VSyUTr7OykoqKCo0ePUldXx9GjR6mtraWsrIznn3+eqKioxRjaN4v5i2W6Omzrr+zfv19kZmaKoKAg8f7774v3339fxMXFiZCQEBEUFCSeffZZUVZWJiYmJuSqSLb1VUwmk1z3RKfTiYGBAVFYWCg2b94sQkJCREBAgNiyZYuoqqoSJpNpMYb3jWHBiWdbJMdkMon+/n7x3e9+V4SHh4u0tDSxbNky4e3tLWJiYsSf/vQnYTQahRBCLoclEcpisQghZhakMZlMwmg0ivPnz4tXXnlFxMTECD8/P7Fx40ZRX1+/YAVsbgUs2p4nvhL73dzcGBgY4NSpU4yMjGAwGPDz8+O9996TS22Avd1TkkCnn80jxF+OgvH09CQ7OxulUklbWxtNTU10dHSQnZ0tp6HdacLMohHP1n5pNBopKSlhYmKCgIAA3n77bVauXHnVKvAS8aankk0nhpOTExkZGRgMBlpaWqivr0epVJKSkrLo+eKLgUUXx4xGI59//jmDg4M4ODjwox/9iIyMDEwm01UTJq1Wq1yNQUpIsT2cUIIQVwqtfv/732fDhg24uLiwa9cuampq5nTGw+2GRdHzbNldSUkJxcXFTE5O8uSTT5Kfny9HisFMY/XU1BQtLS20t7czNjaGv78/MTExBAcHzygfLOVHaLVannrqKRoaGqiqquJPf/oTqampcgWl2bJxb0csiqogTarBYODw4cN0d3cTFRXFt771LbRa7YwQPongFy5c4N1332Xv3r1ylXgpmeXxxx/n4Ycflovz2D4LICUlhc2bN9Pc3ExxcTG1tbXk5eXdUXl+i8I2pdV0/vx56urqMBgM5OfnExkZaVdHU9ikNQ8NDfGf//mfvP3224yMjBASEkJaWhr+/v40Nzfzy1/+kt27dzM5OSlHY0/H+vXriYyMZHJykkOHDtntqXcCARf1FK/Gxka6urpwc3MjNzd31nKPkgR58OBB9u7dS2BgIOvWrWPbtm3y+Xf/+7//y4kTJ/jss89ITExkzZo1s7LB6OhoUlNTOXPmDFVVVUxMTODj43PHRFsvGvGsViudnZ2Mjo4SHh5ORESE3Z5lO6E6nY4DBw6g0+lYuXIlL7/8MuHh4cAV566Pj498+PyZM2dYsWKFXF9lupF7+fLluLq60tPTw8WLF+32vdsdi8I2FQoFer2egYEBufCcm5vbrE5U6fiWvr4+VCoVKSkphIWF2bUVHh5OXFycfEbD1NSUXQVC2zalssIjIyP09PTcUW6jRVMVdDqd7Nbx9fWVjcezTaaDg4N8Gtbly5cxm812KdOS2iBJqdPrddrC398fNzc3jEYjAwMD8nV3AhEXxZMuvhPTjvIAAAS0SURBVKpoZDQaAXB1dZWlvtn2PCcnJ2JjYzGZTFRUVFBVVSV71sfGxjh58iR1dXV4enoSHh4uF3ybjSBSrUzxVW6g9Iw7AYsqsEiTZruKroYHHniAAwcO0NDQwFtvvSUfttHa2sq+ffvo6+sjNzeXlJSUa56IJRHd9kW5UzKMFoV4sxVxu9a1CoWC3Nxcvv/97/PBBx/IBztptVrGxsYwGo0kJSWxbds24uLi7J4xHRKRpgc83VPSFxCurq48/fTTBAQEUFxcTHt7OzqdjujoaBISEli3bh25ubny6WB3I25J4km6npeXF9/+9rfJzs6WSyR7eXnJZZLn6wTI2xULOvrpbMqWdV0rQtr2+E6NRkNsbCwxMTFy7vv1rDTpHumnUqlcdCP19O1ivjjFgkmbtsKJ3QO/mnyJmNfCdDvkjQzatgy/bfznN8lq50vaXbD8PFvRfboYP92WOf362fB1+QxXg20Na1uf4GKqCwv1oswb25SkN4Xiyll3Op0OnU4n59dNTExgMBgwm81yRfTZquTapnXZtmlbCmu6Z/1qUKvVDA0NyZXapdrYBoNh1mfPJ6Tq8dIhGrOdfnmzmPfTmsfGxjh8+DBffvklo6Oj8gSbzWY6OzsZGRkhMDCQgICAWXWt6cSSvrMlnm31iKtBulav19PW1oZOpyM8PBx/f/856ZnXi+l9sVqt8pGlQUFBZGZmkpubi4eHB0qlcl70zHklnsVioaioiH/7t3/j/Pnzcun62cxXV5u4+SKe9P9rEWkhiSf1WaFQoNFo8Pb2Jisrix07dpCTk/PNnhlrC6nj4+PjnD59mvb2dmJiYlizZo1dlVsJ15q0+SSe7bNmE6AWknhSRajBwUFqa2upr6/niy++oKWlhRdffJFNmzbZjeVGMK97nl6vl89BiI6O5rHHHptRburrJnw24k0X769n5UltTn/GbN/fDKb3xfaArNHRUT777DPeffddmpub+fWvf42Xlxd5eXk39cwFEVjgL+fgTa/+frPPuB7cKpYXNzc3nnzySUJCQnjttddoamri448/Jjk5WT7H/UYwL6rCdFb0dWL/jcJWXZjL51aCm5sbBQUF7NixQ65eX1ZWdtUQjrngG8vEuBUneKGgUFypTarVatmwYQPLli2jv7+fmpqam6qdfWen0dxiEELg5eVFSkoKBoOBwcFBLl++fMPtLZpldzHE9VsdQlw5Vk4KghoZGWFiYgIvL68bau/eyruNcY94tzEWhHhXi025h5lzczPzsiBeBbC3bEifu/lUEltX1PT8jRsl4IIILBKhpKM5r2WSultWpORLlGqvSfNwM7kT8048SacZGBigqKgILy+va664hVLobzVIYzSbzTQ3N8vHcd8MN5oX4k13rlqtVmpra6mtrZ2Vx98NxJoOWy+DZFUxm823BvEUCgVqtRp/f3+7s2Snx5wsVDzH7QCpjoz0e2hoqLwCbwTz6s8zGo10d3fT39//lwd8zR53txBPWnGSH89qtbJkyRIiIyNv+Gz1efekf50D9G4lHmB38IcUtS1JmzcUXDUfnZouTd5NBLkeTE8/m+3762pvvlfePSwe7pnHbmPcI95tjHvEu43x/6qtDC2eKCkYAAAAAElFTkSuQmCC;" parent="FI92FZoO_AwsKUyX61cm-38" vertex="1">
          <mxGeometry x="430" y="160" width="111" height="115" as="geometry" />
        </mxCell>
        <mxCell id="FI92FZoO_AwsKUyX61cm-39" value="&lt;font style=&quot;font-size: 24px;&quot; color=&quot;#ff0000&quot;&gt;&lt;b&gt;(WPy)&lt;/b&gt;&lt;/font&gt;" style="text;html=1;align=center;verticalAlign=middle;resizable=0;points=[];autosize=1;strokeColor=none;fillColor=none;" parent="1" vertex="1">
          <mxGeometry x="345" y="-250" width="90" height="40" as="geometry" />
        </mxCell>
        <mxCell id="FI92FZoO_AwsKUyX61cm-45" style="edgeStyle=orthogonalEdgeStyle;rounded=0;orthogonalLoop=1;jettySize=auto;html=1;exitX=0.5;exitY=1;exitDx=0;exitDy=0;" parent="1" source="FI92FZoO_AwsKUyX61cm-38" target="FI92FZoO_AwsKUyX61cm-38" edge="1">
          <mxGeometry relative="1" as="geometry" />
        </mxCell>
        <mxCell id="FI92FZoO_AwsKUyX61cm-46" value="" style="curved=1;endArrow=classic;html=1;rounded=0;exitX=-0.012;exitY=0.533;exitDx=0;exitDy=0;exitPerimeter=0;strokeWidth=4;" parent="1" source="FI92FZoO_AwsKUyX61cm-2" edge="1">
          <mxGeometry width="50" height="50" relative="1" as="geometry">
            <mxPoint x="220" y="740" as="sourcePoint" />
            <mxPoint x="-200" y="500" as="targetPoint" />
            <Array as="points">
              <mxPoint x="30" y="600" />
              <mxPoint x="-140" y="560" />
            </Array>
          </mxGeometry>
        </mxCell>
        <mxCell id="FI92FZoO_AwsKUyX61cm-51" value="" style="curved=1;endArrow=classic;html=1;rounded=0;exitX=0;exitY=0;exitDx=0;exitDy=30;exitPerimeter=0;strokeWidth=4;" parent="1" source="FI92FZoO_AwsKUyX61cm-3" edge="1">
          <mxGeometry width="50" height="50" relative="1" as="geometry">
            <mxPoint x="100" y="730" as="sourcePoint" />
            <mxPoint x="-230" y="500" as="targetPoint" />
            <Array as="points">
              <mxPoint x="300" y="630" />
              <mxPoint x="100" y="650" />
              <mxPoint x="-90" y="620" />
            </Array>
          </mxGeometry>
        </mxCell>
        <mxCell id="FI92FZoO_AwsKUyX61cm-52" value="" style="curved=1;endArrow=classic;html=1;rounded=0;exitX=0;exitY=0;exitDx=0;exitDy=30;exitPerimeter=0;strokeWidth=4;" parent="1" source="FI92FZoO_AwsKUyX61cm-4" edge="1">
          <mxGeometry width="50" height="50" relative="1" as="geometry">
            <mxPoint x="110" y="730" as="sourcePoint" />
            <mxPoint x="-290" y="500" as="targetPoint" />
            <Array as="points">
              <mxPoint x="330" y="760" />
              <mxPoint x="-30" y="790" />
            </Array>
          </mxGeometry>
        </mxCell>
        <mxCell id="FI92FZoO_AwsKUyX61cm-53" value="" style="curved=1;endArrow=classic;html=1;rounded=0;exitX=0;exitY=0;exitDx=0;exitDy=30;exitPerimeter=0;strokeWidth=4;" parent="1" source="FI92FZoO_AwsKUyX61cm-5" edge="1">
          <mxGeometry width="50" height="50" relative="1" as="geometry">
            <mxPoint x="110" y="730" as="sourcePoint" />
            <mxPoint x="-260" y="500" as="targetPoint" />
            <Array as="points">
              <mxPoint x="50" y="700" />
              <mxPoint x="-100" y="650" />
            </Array>
          </mxGeometry>
        </mxCell>
        <mxCell id="FI92FZoO_AwsKUyX61cm-21" value="" style="shape=flexArrow;endArrow=classic;html=1;rounded=0;strokeWidth=3;" parent="1" edge="1">
          <mxGeometry width="50" height="50" relative="1" as="geometry">
            <mxPoint x="920" y="160" as="sourcePoint" />
            <mxPoint x="580" y="330" as="targetPoint" />
          </mxGeometry>
        </mxCell>
      </root>
    </mxGraphModel>
  </diagram>
</mxfile>
